<svg width="151" height="35" viewBox="0 0 151 35" fill="none" xmlns="http://www.w3.org/2000/svg">
<path d="M13.5928 19.9131C14.0908 20.1943 14.5947 20.4492 15.1045 20.6777C15.6201 20.9004 16.1533 21.0908 16.7041 21.249C17.2549 21.4014 17.832 21.5186 18.4355 21.6006C19.0449 21.6826 19.6924 21.7236 20.3779 21.7236C21.2041 21.7236 21.9072 21.6709 22.4873 21.5654C23.0674 21.4541 23.5391 21.3047 23.9023 21.1172C24.2715 20.9238 24.5381 20.6953 24.7021 20.4316C24.8721 20.168 24.957 19.8809 24.957 19.5703C24.957 19.0723 24.749 18.6797 24.333 18.3926C23.917 18.0996 23.2754 17.9531 22.4082 17.9531C22.0273 17.9531 21.626 17.9795 21.2041 18.0322C20.7822 18.0791 20.3545 18.1318 19.9209 18.1904C19.4932 18.249 19.0684 18.3047 18.6465 18.3574C18.2305 18.4043 17.8379 18.4277 17.4688 18.4277C16.8535 18.4277 16.2617 18.3486 15.6934 18.1904C15.1309 18.0322 14.6299 17.7949 14.1904 17.4785C13.7568 17.1621 13.4111 16.7666 13.1533 16.292C12.8955 15.8174 12.7666 15.2637 12.7666 14.6309C12.7666 14.2559 12.8164 13.8838 12.916 13.5146C13.0215 13.1455 13.1855 12.7939 13.4082 12.46C13.6367 12.1201 13.9297 11.8066 14.2871 11.5195C14.6445 11.2266 15.0752 10.9746 15.5791 10.7637C16.0889 10.5527 16.6748 10.3887 17.3369 10.2715C18.0049 10.1484 18.7637 10.0869 19.6133 10.0869C20.2285 10.0869 20.8467 10.1221 21.4678 10.1924C22.0889 10.2568 22.6924 10.3506 23.2783 10.4736C23.8701 10.5967 24.4385 10.7461 24.9834 10.9219C25.5283 11.0918 26.0352 11.2822 26.5039 11.4932L25.2822 13.7432C24.8955 13.5732 24.4795 13.418 24.0342 13.2773C23.5889 13.1309 23.123 13.0049 22.6367 12.8994C22.1504 12.7939 21.6465 12.7119 21.125 12.6533C20.6094 12.5889 20.082 12.5566 19.543 12.5566C18.7754 12.5566 18.1426 12.6123 17.6445 12.7236C17.1523 12.835 16.7598 12.9785 16.4668 13.1543C16.1738 13.3242 15.9688 13.5176 15.8516 13.7344C15.7402 13.9453 15.6846 14.1562 15.6846 14.3672C15.6846 14.7773 15.8691 15.1143 16.2383 15.3779C16.6074 15.6357 17.1699 15.7646 17.9258 15.7646C18.2305 15.7646 18.5791 15.7441 18.9717 15.7031C19.3701 15.6562 19.7861 15.6064 20.2197 15.5537C20.6592 15.501 21.1045 15.4541 21.5557 15.4131C22.0127 15.3662 22.4551 15.3428 22.8828 15.3428C23.6914 15.3428 24.4062 15.4336 25.0273 15.6152C25.6543 15.7969 26.1787 16.0576 26.6006 16.3975C27.0225 16.7314 27.3418 17.1387 27.5586 17.6191C27.7754 18.0938 27.8838 18.627 27.8838 19.2188C27.8838 20.0098 27.6992 20.7158 27.3301 21.3369C26.9668 21.9521 26.4453 22.4736 25.7656 22.9014C25.0918 23.3232 24.2773 23.6455 23.3223 23.8682C22.3672 24.085 21.3037 24.1934 20.1318 24.1934C19.3584 24.1934 18.6025 24.1436 17.8643 24.0439C17.126 23.9502 16.417 23.8154 15.7373 23.6396C15.0635 23.458 14.4189 23.2441 13.8037 22.998C13.1943 22.7461 12.6289 22.4707 12.1074 22.1719L13.5928 19.9131ZM28.6938 18.7793C28.6938 18.0762 28.8373 17.4053 29.1245 16.7666C29.4116 16.1221 29.8246 15.5537 30.3637 15.0615C30.9028 14.5693 31.562 14.1768 32.3412 13.8838C33.1264 13.5908 34.017 13.4443 35.0131 13.4443C36.0034 13.4443 36.894 13.5938 37.685 13.8926C38.4819 14.1855 39.1557 14.5898 39.7065 15.1055C40.2631 15.6211 40.6879 16.2275 40.9809 16.9248C41.2797 17.6221 41.4291 18.3691 41.4291 19.166C41.4291 19.2656 41.4262 19.374 41.4204 19.4912C41.4204 19.6025 41.4145 19.7051 41.4028 19.7988H31.5942C31.7055 20.1094 31.8842 20.3936 32.1303 20.6514C32.3823 20.9092 32.6957 21.1318 33.0707 21.3193C33.4457 21.5068 33.8793 21.6533 34.3715 21.7588C34.8637 21.8584 35.4086 21.9082 36.0063 21.9082C36.6039 21.9082 37.1987 21.8467 37.7905 21.7236C38.3823 21.5947 38.9477 21.4336 39.4868 21.2402L40.3657 23.2266C40.0258 23.3848 39.6801 23.5254 39.3286 23.6484C38.9829 23.7656 38.6196 23.8652 38.2387 23.9473C37.8637 24.0234 37.4682 24.082 37.0522 24.123C36.642 24.1641 36.2084 24.1846 35.7514 24.1846C34.5854 24.1846 33.5629 24.0439 32.684 23.7627C31.8051 23.4814 31.0698 23.0977 30.478 22.6113C29.8862 22.125 29.4409 21.5537 29.142 20.8975C28.8432 20.2412 28.6938 19.5352 28.6938 18.7793ZM38.6694 17.7686C38.5756 17.4814 38.4291 17.2148 38.2299 16.9688C38.0366 16.7168 37.7934 16.5 37.5004 16.3184C37.2075 16.1309 36.8676 15.9844 36.4809 15.8789C36.0942 15.7734 35.6694 15.7207 35.2065 15.7207C34.7143 15.7207 34.2661 15.7764 33.8618 15.8877C33.4575 15.999 33.103 16.1484 32.7983 16.3359C32.4936 16.5234 32.2387 16.7402 32.0336 16.9863C31.8344 17.2324 31.6879 17.4932 31.5942 17.7686H38.6694ZM42.1688 18.8408C42.1688 18.0791 42.3065 17.3701 42.5819 16.7139C42.8632 16.0518 43.2704 15.4805 43.8036 15C44.3427 14.5137 44.9989 14.1328 45.7723 13.8574C46.5516 13.582 47.4393 13.4443 48.4354 13.4443C48.869 13.4443 49.3055 13.4707 49.745 13.5234C50.1845 13.5762 50.6063 13.6523 51.0106 13.752C51.4208 13.8457 51.8046 13.96 52.162 14.0947C52.5194 14.2236 52.83 14.3672 53.0936 14.5254L51.8895 16.4854C51.3212 16.2217 50.7821 16.0283 50.2723 15.9053C49.7684 15.7822 49.2557 15.7207 48.7343 15.7207C48.1366 15.7207 47.6005 15.7998 47.1259 15.958C46.6512 16.1104 46.247 16.3271 45.913 16.6084C45.5848 16.8838 45.3329 17.2119 45.1571 17.5928C44.9872 17.9678 44.9022 18.3779 44.9022 18.8232C44.9022 19.2686 44.993 19.6816 45.1747 20.0625C45.3622 20.4375 45.6229 20.7627 45.9569 21.0381C46.2968 21.3076 46.704 21.5215 47.1786 21.6797C47.6591 21.832 48.1923 21.9082 48.7782 21.9082C49.4227 21.9082 50.0292 21.8174 50.5975 21.6357C51.1718 21.4541 51.705 21.2109 52.1971 20.9062L53.4012 22.8662C53.0907 23.0537 52.7538 23.2295 52.3905 23.3936C52.0272 23.5518 51.6376 23.6895 51.2216 23.8066C50.8114 23.9238 50.3778 24.0146 49.9208 24.0791C49.4696 24.1494 49.0009 24.1846 48.5145 24.1846C47.5243 24.1846 46.6366 24.0498 45.8514 23.7803C45.0663 23.5107 44.4012 23.1387 43.8563 22.6641C43.3114 22.1836 42.8925 21.6182 42.5995 20.9678C42.3124 20.3174 42.1688 19.6084 42.1688 18.8408ZM54.765 13.6201H57.3577V18.6826C57.3577 19.1631 57.4105 19.6025 57.5159 20.001C57.6214 20.3936 57.8001 20.7305 58.0521 21.0117C58.3099 21.293 58.6497 21.5127 59.0716 21.6709C59.4993 21.8232 60.0296 21.8994 60.6624 21.8994C60.9613 21.8994 61.263 21.8672 61.5677 21.8027C61.8782 21.7383 62.1741 21.6504 62.4554 21.5391C62.7366 21.4219 62.9974 21.2842 63.2376 21.126C63.4837 20.9678 63.6946 20.7949 63.8704 20.6074V13.6201H66.472V24H63.8704V23.1123C63.2318 23.4932 62.5902 23.7656 61.9456 23.9297C61.3011 24.0938 60.6888 24.1758 60.1087 24.1758C59.1595 24.1758 58.345 24.0615 57.6654 23.833C56.9915 23.6045 56.4378 23.2734 56.0042 22.8398C55.5765 22.4004 55.263 21.8643 55.0638 21.2314C54.8646 20.5928 54.765 19.8662 54.765 19.0518V13.6201ZM68.3367 13.6289H70.9382V15.123C71.5125 14.6953 72.1189 14.3262 72.7576 14.0156C73.3962 13.7051 74.032 13.4678 74.6648 13.3037L75.4295 15.6855C74.4275 15.7852 73.5457 16.0107 72.7839 16.3623C72.0281 16.708 71.4128 17.1973 70.9382 17.8301V24H68.3367V13.6289ZM75.4396 18.7793C75.4396 18.0762 75.5832 17.4053 75.8703 16.7666C76.1574 16.1221 76.5705 15.5537 77.1096 15.0615C77.6486 14.5693 78.3078 14.1768 79.0871 13.8838C79.8723 13.5908 80.7629 13.4443 81.759 13.4443C82.7492 13.4443 83.6398 13.5938 84.4309 13.8926C85.2277 14.1855 85.9016 14.5898 86.4523 15.1055C87.009 15.6211 87.4338 16.2275 87.7268 16.9248C88.0256 17.6221 88.175 18.3691 88.175 19.166C88.175 19.2656 88.1721 19.374 88.1662 19.4912C88.1662 19.6025 88.1604 19.7051 88.1486 19.7988H78.34C78.4514 20.1094 78.6301 20.3936 78.8762 20.6514C79.1281 20.9092 79.4416 21.1318 79.8166 21.3193C80.1916 21.5068 80.6252 21.6533 81.1174 21.7588C81.6096 21.8584 82.1545 21.9082 82.7521 21.9082C83.3498 21.9082 83.9445 21.8467 84.5363 21.7236C85.1281 21.5947 85.6936 21.4336 86.2326 21.2402L87.1115 23.2266C86.7717 23.3848 86.426 23.5254 86.0744 23.6484C85.7287 23.7656 85.3654 23.8652 84.9846 23.9473C84.6096 24.0234 84.2141 24.082 83.798 24.123C83.3879 24.1641 82.9543 24.1846 82.4973 24.1846C81.3312 24.1846 80.3088 24.0439 79.4299 23.7627C78.551 23.4814 77.8156 23.0977 77.2238 22.6113C76.632 22.125 76.1867 21.5537 75.8879 20.8975C75.5891 20.2412 75.4396 19.5352 75.4396 18.7793ZM85.4152 17.7686C85.3215 17.4814 85.175 17.2148 84.9758 16.9688C84.7824 16.7168 84.5393 16.5 84.2463 16.3184C83.9533 16.1309 83.6135 15.9844 83.2268 15.8789C82.84 15.7734 82.4152 15.7207 81.9523 15.7207C81.4602 15.7207 81.0119 15.7764 80.6076 15.8877C80.2033 15.999 79.8488 16.1484 79.5441 16.3359C79.2395 16.5234 78.9846 16.7402 78.7795 16.9863C78.5803 17.2324 78.4338 17.4932 78.34 17.7686H85.4152Z" fill="#9B9B9B"/>
<path d="M88.1061 13.6201H91.1207L93.819 19.8604L94.5221 21.6094L95.2252 19.8604L97.9235 13.6201H100.938L96.025 24H93.0192L88.1061 13.6201ZM100.825 20.7305C100.825 20.2324 100.934 19.7783 101.15 19.3682C101.367 18.958 101.692 18.6064 102.126 18.3135C102.56 18.0146 103.099 17.7861 103.743 17.6279C104.394 17.4639 105.149 17.3818 106.011 17.3818C106.649 17.3818 107.32 17.4287 108.024 17.5225C108.732 17.6162 109.462 17.7598 110.212 17.9531C110.183 17.625 110.083 17.3232 109.913 17.0479C109.743 16.7666 109.506 16.5264 109.201 16.3271C108.902 16.1221 108.539 15.9639 108.111 15.8525C107.69 15.7412 107.209 15.6855 106.67 15.6855C106.377 15.6855 106.055 15.7031 105.703 15.7383C105.352 15.7734 104.988 15.8262 104.613 15.8965C104.238 15.9668 103.866 16.0547 103.497 16.1602C103.134 16.2656 102.794 16.3916 102.478 16.5381L101.687 14.4023C102.079 14.2617 102.498 14.1328 102.943 14.0156C103.395 13.8984 103.855 13.7988 104.323 13.7168C104.792 13.6289 105.261 13.5615 105.73 13.5146C106.198 13.4678 106.652 13.4443 107.092 13.4443C109.031 13.4443 110.473 13.9395 111.416 14.9297C112.359 15.9199 112.831 17.4375 112.831 19.4824V24H110.23V23.0244C109.96 23.1826 109.664 23.332 109.342 23.4727C109.025 23.6133 108.68 23.7363 108.305 23.8418C107.93 23.9473 107.525 24.0293 107.092 24.0879C106.664 24.1523 106.21 24.1846 105.73 24.1846C104.921 24.1846 104.209 24.0967 103.594 23.9209C102.984 23.7451 102.475 23.502 102.065 23.1914C101.654 22.8809 101.344 22.5176 101.133 22.1016C100.928 21.6797 100.825 21.2227 100.825 20.7305ZM103.567 20.6426C103.567 20.8125 103.611 20.9766 103.699 21.1348C103.787 21.2871 103.928 21.4248 104.121 21.5479C104.315 21.665 104.561 21.7617 104.859 21.8379C105.164 21.9082 105.53 21.9434 105.958 21.9434C106.415 21.9434 106.857 21.9023 107.285 21.8203C107.713 21.7383 108.111 21.6299 108.481 21.4951C108.85 21.3604 109.184 21.2051 109.482 21.0293C109.781 20.8535 110.03 20.6719 110.23 20.4844V20.0273C109.831 19.916 109.436 19.8223 109.043 19.7461C108.656 19.6699 108.284 19.6113 107.927 19.5703C107.575 19.5234 107.241 19.4912 106.925 19.4736C106.614 19.4561 106.342 19.4473 106.107 19.4473C105.621 19.4473 105.217 19.4795 104.895 19.5439C104.572 19.6084 104.312 19.6963 104.112 19.8076C103.913 19.9131 103.773 20.0391 103.691 20.1855C103.608 20.332 103.567 20.4844 103.567 20.6426ZM114.836 13.6201H117.429V18.6826C117.429 19.1631 117.482 19.6025 117.587 20.001C117.693 20.3936 117.872 20.7305 118.124 21.0117C118.381 21.293 118.721 21.5127 119.143 21.6709C119.571 21.8232 120.101 21.8994 120.734 21.8994C121.033 21.8994 121.334 21.8672 121.639 21.8027C121.95 21.7383 122.246 21.6504 122.527 21.5391C122.808 21.4219 123.069 21.2842 123.309 21.126C123.555 20.9678 123.766 20.7949 123.942 20.6074V13.6201H126.543V24H123.942V23.1123C123.303 23.4932 122.662 23.7656 122.017 23.9297C121.373 24.0938 120.76 24.1758 120.18 24.1758C119.231 24.1758 118.417 24.0615 117.737 23.833C117.063 23.6045 116.509 23.2734 116.076 22.8398C115.648 22.4004 115.334 21.8643 115.135 21.2314C114.936 20.5928 114.836 19.8662 114.836 19.0518V13.6201ZM128.478 9.41895H131.08V24H128.478V9.41895ZM134.544 15.5801H132.039V13.6289H134.544V10.4033H137.146V13.6289H139.651V15.5801H137.146V24H134.544V15.5801Z" fill="#D6D6D6"/>
</svg>
