<svg width="197" height="21" viewBox="0 0 197 21" fill="none" xmlns="http://www.w3.org/2000/svg">
<path d="M2.45703 14.5508C3.12109 14.9258 3.79297 15.2656 4.47266 15.5703C5.16016 15.8672 5.87109 16.1211 6.60547 16.332C7.33984 16.5352 8.10938 16.6914 8.91406 16.8008C9.72656 16.9102 10.5898 16.9648 11.5039 16.9648C12.6055 16.9648 13.543 16.8945 14.3164 16.7539C15.0898 16.6055 15.7188 16.4062 16.2031 16.1562C16.6953 15.8984 17.0508 15.5938 17.2695 15.2422C17.4961 14.8906 17.6094 14.5078 17.6094 14.0938C17.6094 13.4297 17.332 12.9062 16.7773 12.5234C16.2227 12.1328 15.3672 11.9375 14.2109 11.9375C13.7031 11.9375 13.168 11.9727 12.6055 12.043C12.043 12.1055 11.4727 12.1758 10.8945 12.2539C10.3242 12.332 9.75781 12.4062 9.19531 12.4766C8.64062 12.5391 8.11719 12.5703 7.625 12.5703C6.80469 12.5703 6.01562 12.4648 5.25781 12.2539C4.50781 12.043 3.83984 11.7266 3.25391 11.3047C2.67578 10.8828 2.21484 10.3555 1.87109 9.72266C1.52734 9.08984 1.35547 8.35156 1.35547 7.50781C1.35547 7.00781 1.42188 6.51172 1.55469 6.01953C1.69531 5.52734 1.91406 5.05859 2.21094 4.61328C2.51562 4.16016 2.90625 3.74219 3.38281 3.35938C3.85938 2.96875 4.43359 2.63281 5.10547 2.35156C5.78516 2.07031 6.56641 1.85156 7.44922 1.69531C8.33984 1.53125 9.35156 1.44922 10.4844 1.44922C11.3047 1.44922 12.1289 1.49609 12.957 1.58984C13.7852 1.67578 14.5898 1.80078 15.3711 1.96484C16.1602 2.12891 16.918 2.32812 17.6445 2.5625C18.3711 2.78906 19.0469 3.04297 19.6719 3.32422L18.043 6.32422C17.5273 6.09766 16.9727 5.89062 16.3789 5.70312C15.7852 5.50781 15.1641 5.33984 14.5156 5.19922C13.8672 5.05859 13.1953 4.94922 12.5 4.87109C11.8125 4.78516 11.1094 4.74219 10.3906 4.74219C9.36719 4.74219 8.52344 4.81641 7.85938 4.96484C7.20312 5.11328 6.67969 5.30469 6.28906 5.53906C5.89844 5.76562 5.625 6.02344 5.46875 6.3125C5.32031 6.59375 5.24609 6.875 5.24609 7.15625C5.24609 7.70313 5.49219 8.15234 5.98438 8.50391C6.47656 8.84766 7.22656 9.01953 8.23438 9.01953C8.64062 9.01953 9.10547 8.99219 9.62891 8.9375C10.1602 8.875 10.7148 8.80859 11.293 8.73828C11.8789 8.66797 12.4727 8.60547 13.0742 8.55078C13.6836 8.48828 14.2734 8.45703 14.8438 8.45703C15.9219 8.45703 16.875 8.57812 17.7031 8.82031C18.5391 9.0625 19.2383 9.41016 19.8008 9.86328C20.3633 10.3086 20.7891 10.8516 21.0781 11.4922C21.3672 12.125 21.5117 12.8359 21.5117 13.625C21.5117 14.6797 21.2656 15.6211 20.7734 16.4492C20.2891 17.2695 19.5938 17.9648 18.6875 18.5352C17.7891 19.0977 16.7031 19.5273 15.4297 19.8242C14.1562 20.1133 12.7383 20.2578 11.1758 20.2578C10.1445 20.2578 9.13672 20.1914 8.15234 20.0586C7.16797 19.9336 6.22266 19.7539 5.31641 19.5195C4.41797 19.2773 3.55859 18.9922 2.73828 18.6641C1.92578 18.3281 1.17188 17.9609 0.476562 17.5625L2.45703 14.5508ZM27.2539 8.77344H23.9141V6.17188H27.2539V1.87109H30.7227V6.17188H34.0625V8.77344H30.7227V20H27.2539V8.77344ZM36.4883 15.6406C36.4883 14.9766 36.6328 14.3711 36.9219 13.8242C37.2109 13.2773 37.6445 12.8086 38.2227 12.418C38.8008 12.0195 39.5195 11.7148 40.3789 11.5039C41.2461 11.2852 42.2539 11.1758 43.4023 11.1758C44.2539 11.1758 45.1484 11.2383 46.0859 11.3633C47.0312 11.4883 48.0039 11.6797 49.0039 11.9375C48.9648 11.5 48.832 11.0977 48.6055 10.7305C48.3789 10.3555 48.0625 10.0352 47.6562 9.76953C47.2578 9.49609 46.7734 9.28516 46.2031 9.13672C45.6406 8.98828 45 8.91406 44.2812 8.91406C43.8906 8.91406 43.4609 8.9375 42.9922 8.98438C42.5234 9.03125 42.0391 9.10156 41.5391 9.19531C41.0391 9.28906 40.543 9.40625 40.0508 9.54688C39.5664 9.6875 39.1133 9.85547 38.6914 10.0508L37.6367 7.20312C38.1602 7.01562 38.7188 6.84375 39.3125 6.6875C39.9141 6.53125 40.5273 6.39844 41.1523 6.28906C41.7773 6.17188 42.4023 6.08203 43.0273 6.01953C43.6523 5.95703 44.2578 5.92578 44.8438 5.92578C47.4297 5.92578 49.3516 6.58594 50.6094 7.90625C51.8672 9.22656 52.4961 11.25 52.4961 13.9766V20H49.0273V18.6992C48.668 18.9102 48.2734 19.1094 47.8438 19.2969C47.4219 19.4844 46.9609 19.6484 46.4609 19.7891C45.9609 19.9297 45.4219 20.0391 44.8438 20.1172C44.2734 20.2031 43.668 20.2461 43.0273 20.2461C41.9492 20.2461 41 20.1289 40.1797 19.8945C39.3672 19.6602 38.6875 19.3359 38.1406 18.9219C37.5938 18.5078 37.1797 18.0234 36.8984 17.4688C36.625 16.9062 36.4883 16.2969 36.4883 15.6406ZM40.1445 15.5234C40.1445 15.75 40.2031 15.9688 40.3203 16.1797C40.4375 16.3828 40.625 16.5664 40.8828 16.7305C41.1406 16.8867 41.4688 17.0156 41.8672 17.1172C42.2734 17.2109 42.7617 17.2578 43.332 17.2578C43.9414 17.2578 44.5312 17.2031 45.1016 17.0938C45.6719 16.9844 46.2031 16.8398 46.6953 16.6602C47.1875 16.4805 47.6328 16.2734 48.0312 16.0391C48.4297 15.8047 48.7617 15.5625 49.0273 15.3125V14.7031C48.4961 14.5547 47.9688 14.4297 47.4453 14.3281C46.9297 14.2266 46.4336 14.1484 45.957 14.0938C45.4883 14.0312 45.043 13.9883 44.6211 13.9648C44.207 13.9414 43.8438 13.9297 43.5312 13.9297C42.8828 13.9297 42.3438 13.9727 41.9141 14.0586C41.4844 14.1445 41.1367 14.2617 40.8711 14.4102C40.6055 14.5508 40.418 14.7188 40.3086 14.9141C40.1992 15.1094 40.1445 15.3125 40.1445 15.5234ZM59.1758 8.77344H55.8359V6.17188H59.1758V1.87109H62.6445V6.17188H65.9844V8.77344H62.6445V20H59.1758V8.77344ZM69.0664 6.16016H72.5234V12.9102C72.5234 13.5508 72.5938 14.1367 72.7344 14.668C72.875 15.1914 73.1133 15.6406 73.4492 16.0156C73.793 16.3906 74.2461 16.6836 74.8086 16.8945C75.3789 17.0977 76.0859 17.1992 76.9297 17.1992C77.3281 17.1992 77.7305 17.1562 78.1367 17.0703C78.5508 16.9844 78.9453 16.8672 79.3203 16.7188C79.6953 16.5625 80.043 16.3789 80.3633 16.168C80.6914 15.957 80.9727 15.7266 81.207 15.4766V6.16016H84.6758V20H81.207V18.8164C80.3555 19.3242 79.5 19.6875 78.6406 19.9062C77.7812 20.125 76.9648 20.2344 76.1914 20.2344C74.9258 20.2344 73.8398 20.082 72.9336 19.7773C72.0352 19.4727 71.2969 19.0312 70.7188 18.4531C70.1484 17.8672 69.7305 17.1523 69.4648 16.3086C69.1992 15.457 69.0664 14.4883 69.0664 13.4023V6.16016ZM89.6328 15.7578C90.5703 16.3203 91.6016 16.7344 92.7266 17C93.8516 17.2656 95.0039 17.3984 96.1836 17.3984C96.9805 17.3984 97.6445 17.3438 98.1758 17.2344C98.707 17.125 99.1328 16.9844 99.4531 16.8125C99.7734 16.6406 100 16.4453 100.133 16.2266C100.266 16.0078 100.332 15.7852 100.332 15.5586C100.332 15.2305 100.188 14.9492 99.8984 14.7148C99.6172 14.4805 99.1484 14.3633 98.4922 14.3633C98.1875 14.3633 97.8594 14.3828 97.5078 14.4219C97.1562 14.4609 96.7852 14.5039 96.3945 14.5508C96.0117 14.5898 95.6094 14.6289 95.1875 14.668C94.7734 14.707 94.3516 14.7266 93.9219 14.7266C92.9844 14.7266 92.1836 14.625 91.5195 14.4219C90.8633 14.2188 90.3281 13.9414 89.9141 13.5898C89.5 13.2383 89.1992 12.8242 89.0117 12.3477C88.8242 11.8633 88.7305 11.3438 88.7305 10.7891C88.7305 10.0859 88.8945 9.4375 89.2227 8.84375C89.5508 8.25 90.0195 7.73828 90.6289 7.30859C91.2383 6.87109 91.9727 6.53125 92.832 6.28906C93.6992 6.04687 94.6641 5.92578 95.7266 5.92578C96.2812 5.92578 96.8594 5.96094 97.4609 6.03125C98.0703 6.09375 98.668 6.17969 99.2539 6.28906C99.8398 6.39844 100.402 6.52734 100.941 6.67578C101.48 6.81641 101.957 6.96875 102.371 7.13281L101.281 9.82812C100.398 9.5 99.5156 9.24219 98.6328 9.05469C97.7578 8.85938 96.8555 8.76172 95.9258 8.76172C95.2773 8.76172 94.7266 8.8125 94.2734 8.91406C93.8281 9.00781 93.4648 9.13672 93.1836 9.30078C92.9023 9.45703 92.6953 9.64062 92.5625 9.85156C92.4375 10.0547 92.375 10.2695 92.375 10.4961C92.375 10.6602 92.4062 10.8086 92.4688 10.9414C92.5391 11.0742 92.6484 11.1914 92.7969 11.293C92.9531 11.3867 93.1523 11.4609 93.3945 11.5156C93.6445 11.5625 93.9492 11.5859 94.3086 11.5859C94.6367 11.5859 94.9844 11.5664 95.3516 11.5273C95.7188 11.4883 96.1016 11.4492 96.5 11.4102C96.8984 11.3633 97.3086 11.3203 97.7305 11.2812C98.1602 11.2422 98.5977 11.2227 99.043 11.2227C99.8711 11.2227 100.594 11.3203 101.211 11.5156C101.836 11.7109 102.352 11.9844 102.758 12.3359C103.164 12.6875 103.469 13.1016 103.672 13.5781C103.875 14.0547 103.977 14.5742 103.977 15.1367C103.977 15.8633 103.809 16.5391 103.473 17.1641C103.137 17.7891 102.637 18.332 101.973 18.793C101.309 19.2461 100.48 19.6016 99.4883 19.8594C98.5039 20.1172 97.3633 20.2461 96.0664 20.2461C95.2695 20.2461 94.5 20.1953 93.7578 20.0938C93.0156 20 92.3086 19.8711 91.6367 19.707C90.9648 19.5352 90.332 19.3359 89.7383 19.1094C89.1523 18.8828 88.6172 18.6406 88.1328 18.3828L89.6328 15.7578Z" fill="#1A3561"/>
<path d="M107.539 1.68359H117.324C118.52 1.68359 119.559 1.8125 120.441 2.07031C121.332 2.32031 122.07 2.66797 122.656 3.11328C123.242 3.55859 123.676 4.08984 123.957 4.70703C124.246 5.31641 124.391 5.97656 124.391 6.6875C124.391 7.85156 124.023 8.87109 123.289 9.74609C124.133 10.2461 124.762 10.8945 125.176 11.6914C125.59 12.4883 125.797 13.3945 125.797 14.4102C125.797 15.2617 125.652 16.0312 125.363 16.7188C125.082 17.4062 124.648 17.9961 124.062 18.4883C123.484 18.9727 122.75 19.3477 121.859 19.6133C120.977 19.8711 119.934 20 118.73 20H107.539V1.68359ZM118.754 8.71484C119.074 8.71484 119.387 8.72656 119.691 8.75C120.215 8.25 120.477 7.67969 120.477 7.03906C120.477 6.375 120.215 5.86328 119.691 5.50391C119.176 5.13672 118.418 4.95312 117.418 4.95312H111.254V8.71484H118.754ZM118.824 16.7656C119.824 16.7656 120.582 16.5508 121.098 16.1211C121.621 15.6914 121.883 15.0859 121.883 14.3047C121.883 13.5234 121.621 12.9141 121.098 12.4766C120.582 12.0391 119.824 11.8203 118.824 11.8203H111.254V16.7656H118.824ZM128.305 13.0859C128.305 12.0938 128.504 11.1641 128.902 10.2969C129.309 9.42969 129.883 8.67188 130.625 8.02344C131.375 7.375 132.277 6.86328 133.332 6.48828C134.395 6.11328 135.586 5.92578 136.906 5.92578C138.227 5.92578 139.414 6.11328 140.469 6.48828C141.531 6.86328 142.434 7.375 143.176 8.02344C143.926 8.67188 144.5 9.42969 144.898 10.2969C145.305 11.1641 145.508 12.0938 145.508 13.0859C145.508 14.0781 145.305 15.0078 144.898 15.875C144.5 16.7422 143.926 17.5 143.176 18.1484C142.434 18.7969 141.531 19.3086 140.469 19.6836C139.414 20.0586 138.227 20.2461 136.906 20.2461C135.586 20.2461 134.395 20.0586 133.332 19.6836C132.277 19.3086 131.375 18.7969 130.625 18.1484C129.883 17.5 129.309 16.7422 128.902 15.875C128.504 15.0078 128.305 14.0781 128.305 13.0859ZM131.949 13.0859C131.949 13.6406 132.059 14.168 132.277 14.668C132.504 15.1602 132.828 15.5977 133.25 15.9805C133.68 16.3555 134.199 16.6562 134.809 16.8828C135.426 17.1016 136.125 17.2109 136.906 17.2109C137.688 17.2109 138.383 17.1016 138.992 16.8828C139.609 16.6562 140.129 16.3555 140.551 15.9805C140.98 15.5977 141.305 15.1602 141.523 14.668C141.75 14.168 141.863 13.6406 141.863 13.0859C141.863 12.5312 141.75 12.0039 141.523 11.5039C141.305 11.0039 140.98 10.5664 140.551 10.1914C140.129 9.80859 139.609 9.50781 138.992 9.28906C138.383 9.0625 137.688 8.94922 136.906 8.94922C136.125 8.94922 135.426 9.0625 134.809 9.28906C134.199 9.50781 133.68 9.80859 133.25 10.1914C132.828 10.5664 132.504 11.0039 132.277 11.5039C132.059 12.0039 131.949 12.5312 131.949 13.0859ZM148.355 15.6406C148.355 14.9766 148.5 14.3711 148.789 13.8242C149.078 13.2773 149.512 12.8086 150.09 12.418C150.668 12.0195 151.387 11.7148 152.246 11.5039C153.113 11.2852 154.121 11.1758 155.27 11.1758C156.121 11.1758 157.016 11.2383 157.953 11.3633C158.898 11.4883 159.871 11.6797 160.871 11.9375C160.832 11.5 160.699 11.0977 160.473 10.7305C160.246 10.3555 159.93 10.0352 159.523 9.76953C159.125 9.49609 158.641 9.28516 158.07 9.13672C157.508 8.98828 156.867 8.91406 156.148 8.91406C155.758 8.91406 155.328 8.9375 154.859 8.98438C154.391 9.03125 153.906 9.10156 153.406 9.19531C152.906 9.28906 152.41 9.40625 151.918 9.54688C151.434 9.6875 150.98 9.85547 150.559 10.0508L149.504 7.20312C150.027 7.01562 150.586 6.84375 151.18 6.6875C151.781 6.53125 152.395 6.39844 153.02 6.28906C153.645 6.17188 154.27 6.08203 154.895 6.01953C155.52 5.95703 156.125 5.92578 156.711 5.92578C159.297 5.92578 161.219 6.58594 162.477 7.90625C163.734 9.22656 164.363 11.25 164.363 13.9766V20H160.895V18.6992C160.535 18.9102 160.141 19.1094 159.711 19.2969C159.289 19.4844 158.828 19.6484 158.328 19.7891C157.828 19.9297 157.289 20.0391 156.711 20.1172C156.141 20.2031 155.535 20.2461 154.895 20.2461C153.816 20.2461 152.867 20.1289 152.047 19.8945C151.234 19.6602 150.555 19.3359 150.008 18.9219C149.461 18.5078 149.047 18.0234 148.766 17.4688C148.492 16.9062 148.355 16.2969 148.355 15.6406ZM152.012 15.5234C152.012 15.75 152.07 15.9688 152.188 16.1797C152.305 16.3828 152.492 16.5664 152.75 16.7305C153.008 16.8867 153.336 17.0156 153.734 17.1172C154.141 17.2109 154.629 17.2578 155.199 17.2578C155.809 17.2578 156.398 17.2031 156.969 17.0938C157.539 16.9844 158.07 16.8398 158.562 16.6602C159.055 16.4805 159.5 16.2734 159.898 16.0391C160.297 15.8047 160.629 15.5625 160.895 15.3125V14.7031C160.363 14.5547 159.836 14.4297 159.312 14.3281C158.797 14.2266 158.301 14.1484 157.824 14.0938C157.355 14.0312 156.91 13.9883 156.488 13.9648C156.074 13.9414 155.711 13.9297 155.398 13.9297C154.75 13.9297 154.211 13.9727 153.781 14.0586C153.352 14.1445 153.004 14.2617 152.738 14.4102C152.473 14.5508 152.285 14.7188 152.176 14.9141C152.066 15.1094 152.012 15.3125 152.012 15.5234ZM168.957 6.17188H172.426V8.16406C173.191 7.59375 174 7.10156 174.852 6.6875C175.703 6.27344 176.551 5.95703 177.395 5.73828L178.414 8.91406C177.078 9.04688 175.902 9.34766 174.887 9.81641C173.879 10.2773 173.059 10.9297 172.426 11.7734V20H168.957V6.17188ZM179.938 13.1445C179.938 12.043 180.145 11.0508 180.559 10.168C180.973 9.27734 181.543 8.51953 182.27 7.89453C183.004 7.26172 183.871 6.77734 184.871 6.44141C185.879 6.09766 186.969 5.92578 188.141 5.92578C188.641 5.92578 189.133 5.95703 189.617 6.01953C190.109 6.08203 190.578 6.16797 191.023 6.27734C191.477 6.38672 191.898 6.51953 192.289 6.67578C192.688 6.82422 193.039 6.98828 193.344 7.16797V0.558594H196.812V20H193.344V18.6992C193.039 18.9102 192.68 19.1094 192.266 19.2969C191.852 19.4844 191.406 19.6484 190.93 19.7891C190.453 19.9297 189.957 20.0391 189.441 20.1172C188.934 20.2031 188.43 20.2461 187.93 20.2461C186.758 20.2461 185.68 20.0742 184.695 19.7305C183.719 19.3867 182.879 18.9023 182.176 18.2773C181.473 17.6523 180.922 16.9062 180.523 16.0391C180.133 15.1641 179.938 14.1992 179.938 13.1445ZM183.582 13.1445C183.582 13.6992 183.691 14.2227 183.91 14.7148C184.137 15.207 184.457 15.6406 184.871 16.0156C185.293 16.3828 185.797 16.6758 186.383 16.8945C186.977 17.1055 187.641 17.2109 188.375 17.2109C188.844 17.2109 189.312 17.168 189.781 17.082C190.25 16.9883 190.699 16.8594 191.129 16.6953C191.566 16.5312 191.973 16.332 192.348 16.0977C192.73 15.8633 193.062 15.6016 193.344 15.3125V10.5195C192.992 10.2383 192.621 10 192.23 9.80469C191.84 9.60938 191.441 9.44922 191.035 9.32422C190.629 9.19922 190.219 9.10938 189.805 9.05469C189.391 8.99219 188.988 8.96094 188.598 8.96094C187.801 8.96094 187.09 9.07031 186.465 9.28906C185.848 9.5 185.324 9.79297 184.895 10.168C184.473 10.543 184.148 10.9844 183.922 11.4922C183.695 12 183.582 12.5508 183.582 13.1445Z" fill="#B3282D"/>
</svg>
