<?xml version="1.0" encoding="utf-8"?>
<!-- Generator: Adobe Illustrator 22.1.0, SVG Export Plug-In . SVG Version: 6.00 Build 0)  -->
<svg version="1.1" id="Layer_1" xmlns="http://www.w3.org/2000/svg" xmlns:xlink="http://www.w3.org/1999/xlink" x="0px" y="0px"
	 viewBox="0 0 836.1 388" style="enable-background:new 0 0 836.1 388;" xml:space="preserve">
<style type="text/css">
	.st0{fill:#B3282D;}
	.st1{fill:#1A3561;}
</style>
<path class="st0" d="M824.5,191.4c-34.3-30.2-63-44.4-96.1-61.3c-82.5-42-180.4-78.9-273.3-48.8v-0.1c-2.3,0.7-4.6,1.5-7,2.3
	c-0.7-3.8-1.4-7.6-2.1-11.3c-1.3-8.6-1.8-16.8,0.2-26.2c2.6-11.7,6.7-25.2,15.1-34.4c1.4-1.5,10.9-5.4,4.2-7.8
	c-4.9-1.8-9.8-3.5-15.1-3.8c-12.5-0.7-19.9,9.8-24.7,19.6c-2.7-0.5-5.3-0.6-7.7-0.3h0h0v0c-5.4,0.7-10.1,3.3-13.7,7.1
	c-0.3,0.3-0.5,0.6-0.7,0.9c-0.6,0.7-1.2,1.4-1.8,2.2c-0.5,0.7-1,1.5-1.4,2.3c-0.2,0.4-0.5,0.7-0.7,1.1c-1.3,2.4-2.3,5-2.9,7.6
	c-0.9,3.5-1.7,7.1-2.5,10.7c-0.2,1.1-0.5,2.2-0.7,3.3c-0.5,2.5-1.1,5-1.6,7.5c-0.3,1.6-0.6,3.2-0.9,4.8c-0.4,2-0.8,4-1.1,6
	c-0.7,3.6-1.3,7.2-2,10.8c-2.4-0.8-4.7-1.6-7-2.3v0.1c-93-30.1-190.8,6.9-273.3,48.8c-33.1,16.8-61.9,31-96.1,61.3
	C6,196.3-1.9,205.1,0.4,213.2c3,10.5,14.1,10.4,21.9,5.6c18.1-11.2,38.2-41.7,63-28.8c22,11.5,33.8,40.3,44.8,60.7
	c5.1,9.5,10.1,19.8,17.3,28c6.8,7.7,20.6,8.1,22.7-4.2c1.5-9.2-6.1-19.5-10.6-26.9c-7.1-11.8-14.7-23.2-21.6-35.1
	c-8.2-14.1-27.6-45.1-5.1-55.7c21.3-10,37.2,11.6,46.3,27.3c11,18.8,17.2,40.5,29.5,58.6c5.1,7.5,17.8,11.1,21.4-0.2
	c2.8-8.9-4.8-18.6-9.2-25.8c-12.7-20.6-28.1-41.9-34.4-65.5c-1.9-7.1-3.2-17.2,4.2-21.8c8-5.1,19.9-3.1,27.4,1.9
	c18.2,12,24.3,37.5,31.8,56.3c2.7,7,5.7,16.3,12,21c2.7,2,5.9,2.2,9,0.8c8.2-3.6,6.6-13.7,3.9-20.3c-6.8-17.1-18-32.2-25.6-49
	c-4-8.7-12-27.1,1.8-31.8c30-10.1,41.5,27.1,49.2,46.9c2.6,6.7,5.4,14.5,10.9,19.6c3.7,3.4,11.1,5.6,14.6,0.7
	c3.4-4.7,1.8-11.9-0.5-16.6c-3.8-8.1-8.1-16-11.7-24.2c-4.6-10.3-11.8-28.7,5.2-31.7c18-3.1,30.4,6.9,43.7,16.9l0,0
	c10.3,7.9,17.5,22.2,21.2,34.1c6.8,21.7,8.7,44.7,8.6,67.3h-0.2c0.5,10.5-0.5,21.1-1.5,31.6h-0.1c-0.2,1.6-0.3,3.1-0.4,4.8l0.2-0.1
	c-3.8,28.8-12.5,56.1-24.6,82.6c-3.9,8.6-15.2,24-9.7,33.8c2.7,4.7,8.6,6.4,13.8,5.1c6.3-1.6,9-8.2,11.8-13.3
	c5.3-9.6,9.9-19.6,14.1-29.7c1.6-3.8,7.1-12.8,9-4.2c2.3,10.3-0.1,21.5-0.2,31.9c-0.1,7.6-0.2,19.4,8.1,23.3
	c1.4,0.5,2.9,0.8,4.4,0.9v0h0c0,0,0,0,0.1,0s0,0,0,0v0c0.3-0.1,0.6,0,0.9,0c0,0,0,0,0,0c0.3,0,0.6-0.1,0.9,0v0c0,0,0,0,0,0
	c0,0,0,0,0.1,0h0v0c1.5-0.1,3-0.4,4.4-0.9c8.3-3.9,8.2-15.7,8.1-23.3c-0.2-10.4-2.6-21.6-0.2-31.9c1.9-8.5,7.4,0.4,9,4.2
	c4.2,10.1,8.7,20.1,14.1,29.7c2.8,5.1,5.6,11.7,11.9,13.3c5.2,1.3,11.1-0.4,13.8-5.1c5.5-9.9-5.8-25.2-9.7-33.8
	c-12-26.5-20.8-53.8-24.6-82.6l0.2,0.1c-0.2-1.6-0.3-3.2-0.4-4.8h-0.1c-1-10.4-1.9-21.1-1.5-31.6h-0.2c-0.1-22.6,1.8-45.6,8.6-67.3
	c3.7-11.9,10.9-26.2,21.2-34.1l0,0c13.3-9.9,25.7-20,43.7-16.9c17,3,9.8,21.3,5.2,31.7c-3.6,8.2-7.8,16.1-11.7,24.2
	c-2.3,4.8-3.9,12-0.5,16.6c3.6,4.9,10.9,2.7,14.6-0.7c5.5-5.1,8.3-12.9,10.9-19.6c7.7-19.8,19.2-57,49.2-46.9
	c13.8,4.6,5.7,23,1.8,31.8c-7.6,16.7-18.8,31.9-25.6,49c-2.6,6.6-4.3,16.7,3.9,20.3c3.1,1.4,6.3,1.3,9-0.8c6.3-4.8,9.3-14.1,12-21
	c7.4-18.8,13.6-44.2,31.8-56.3c7.5-5,19.4-6.9,27.4-1.9c7.4,4.7,6.1,14.7,4.2,21.8c-6.2,23.6-21.7,44.8-34.4,65.5
	c-4.4,7.2-12,16.9-9.2,25.8c3.6,11.3,16.3,7.8,21.4,0.2c12.3-18.1,18.5-39.8,29.5-58.6c9.1-15.7,25.1-37.2,46.3-27.3
	c22.6,10.6,3.1,41.6-5.1,55.7c-6.9,11.9-14.5,23.4-21.6,35.1c-4.5,7.4-12.1,17.7-10.6,26.9c2.1,12.3,15.9,11.9,22.7,4.2
	c7.2-8.2,12.2-18.5,17.3-28c11-20.4,22.7-49.2,44.8-60.7c24.8-13,44.9,17.6,63,28.8c7.8,4.8,18.9,4.9,21.9-5.6
	C837.9,205.1,830,196.3,824.5,191.4z"/>
<g>
	<path class="st1" d="M489.9,303.7c0,0,3.2-13.9,22.8-8.9c0,0,11.4,5.7,20.9-0.6c0,0,17.5-9.1,36-3.2c0,0,15.2,6.3,11.4,17.7
		c0,0-1.8,9-19,1.3c0,0-8.2-3.5-20.9,3.8c0,0-19.6,12-39.2,3.8c0,0-8.9-1.3-12-10.8V303.7z"/>
	<path class="st1" d="M496.2,340c0,0-0.5-1.9-0.4-2.7c0.6-3.7,3.2-14,16.8-10.8c0,0,13.3,0.6,25.3-3.8c0,0,20.3-10.9,37.9,5.7
		c0,0,11.4,10.4,1.9,20.9c0,0-5.1,4.4-19-5.7c0,0-10.8-7-26.6,1.3c0,0-19.4,7.1-30,2.1c-2.8-1.7-4.4-2.7-5.8-6.1L496.2,340z"/>
</g>
<g>
	<path class="st1" d="M346.2,303.7c0,0-3.2-13.9-22.8-8.9c0,0-11.4,5.7-20.9-0.6c0,0-17.5-9.1-36-3.2c0,0-15.2,6.3-11.4,17.7
		c0,0,1.8,9,19,1.3c0,0,8.2-3.5,20.9,3.8c0,0,19.6,12,39.2,3.8c0,0,8.9-1.3,12-10.8V303.7z"/>
	<path class="st1" d="M339.8,340c0,0,0.5-1.9,0.4-2.7c-0.6-3.7-3.2-14-16.8-10.8c0,0-13.3,0.6-25.3-3.8c0,0-20.3-10.9-37.9,5.7
		c0,0-11.4,10.4-1.9,20.9c0,0,5.1,4.4,19-5.7c0,0,10.8-7,26.6,1.3c0,0,19.4,7.1,30,2.1c2.8-1.7,4.4-2.7,5.8-6.1L339.8,340z"/>
</g>
</svg>
